<svg width="64" height="35" viewBox="0 0 64 35" fill="none" xmlns="http://www.w3.org/2000/svg">
<path d="M53.5349 10.4188V5.73242H48.8485V10.4188H53.5349Z" fill="#FF4D00" stroke="#FF4D00" stroke-width="0.326795" stroke-miterlimit="10"/>
<path d="M48.8491 5.73251V1.04614L44.1627 1.04614V5.73251H48.8491Z" fill="#FF4D00" stroke="#FF4D00" stroke-width="0.326795" stroke-miterlimit="10"/>
<path d="M58.2102 15.1053V10.4189H53.5238V15.1053H58.2102Z" fill="#FF4D00" stroke="#FF4D00" stroke-width="0.326795" stroke-miterlimit="10"/>
<path d="M62.9082 19.7916V15.1052H58.2218V19.7916H62.9082Z" fill="#FF4D00" stroke="#FF4D00" stroke-width="0.326795" stroke-miterlimit="10"/>
<path d="M58.2211 24.4666V19.7803H53.5347V24.4666H58.2211Z" fill="#FF4D00" stroke="#FF4D00" stroke-width="0.326795" stroke-miterlimit="10"/>
<path d="M53.5349 29.153V24.4666H48.8485V29.153H53.5349Z" fill="#FF4D00" stroke="#FF4D00" stroke-width="0.326795" stroke-miterlimit="10"/>
<path d="M48.8491 33.8282V29.1418H44.1627V33.8282H48.8491Z" fill="#FF4D00" stroke="#FF4D00" stroke-width="0.326795" stroke-miterlimit="10"/>
<path d="M31.9482 10.4188V5.73242H27.2618V10.4188H31.9482Z" fill="#FF4D00" stroke="#FF4D00" stroke-width="0.326795" stroke-miterlimit="10"/>
<path d="M27.2614 5.73251V1.04614L22.575 1.04614V5.73251H27.2614Z" fill="#FF4D00" stroke="#FF4D00" stroke-width="0.326795" stroke-miterlimit="10"/>
<path d="M36.6353 15.0938V10.4075H31.9488V15.0938H36.6353Z" fill="#FF4D00" stroke="#FF4D00" stroke-width="0.326795" stroke-miterlimit="10"/>
<path d="M41.3214 19.7804V15.094H36.635V19.7804H41.3214Z" fill="#FF4D00" stroke="#FF4D00" stroke-width="0.326795" stroke-miterlimit="10"/>
<path d="M36.6353 24.4666V19.7803H31.9489V24.4666H36.6353Z" fill="#FF4D00" stroke="#FF4D00" stroke-width="0.326795" stroke-miterlimit="10"/>
<path d="M31.9482 29.153V24.4666H27.2617V29.153H31.9482Z" fill="#FF4D00" stroke="#FF4D00" stroke-width="0.326795" stroke-miterlimit="10"/>
<path d="M27.2614 33.8394V29.1531H22.575V33.8394H27.2614Z" fill="#FF4D00" stroke="#FF4D00" stroke-width="0.326795" stroke-miterlimit="10"/>
<path d="M10.3617 10.4188V5.73242H5.67532V10.4188H10.3617Z" fill="#FF4D00" stroke="#FF4D00" stroke-width="0.326795" stroke-miterlimit="10"/>
<path d="M5.6864 5.73251V1.04614L0.999996 1.04614V5.73251H5.6864Z" fill="#FF4D00" stroke="#FF4D00" stroke-width="0.326795" stroke-miterlimit="10"/>
<path d="M15.0479 15.1053V10.4189H10.3615V15.1053H15.0479Z" fill="#FF4D00" stroke="#FF4D00" stroke-width="0.326795" stroke-miterlimit="10"/>
<path d="M19.7455 19.7916V15.1052H15.0591V19.7916H19.7455Z" fill="#FF4D00" stroke="#FF4D00" stroke-width="0.326795" stroke-miterlimit="10"/>
<path d="M15.0594 24.4666V19.7803H10.373V24.4666H15.0594Z" fill="#FF4D00" stroke="#FF4D00" stroke-width="0.326795" stroke-miterlimit="10"/>
<path d="M10.3729 29.153V24.4666H5.68646V29.153H10.3729Z" fill="#FF4D00" stroke="#FF4D00" stroke-width="0.326795" stroke-miterlimit="10"/>
<path d="M5.6864 33.8394V29.1531H1.00003V33.8394H5.6864Z" fill="#FF4D00" stroke="#FF4D00" stroke-width="0.326795" stroke-miterlimit="10"/>
</svg>
