<svg width="665" height="41" viewBox="0 0 665 41" fill="none" xmlns="http://www.w3.org/2000/svg">
<g clip-path="url(#clip0_258_2245)">
<path d="M402.796 20.1385C402.89 29.9953 397.012 35.9436 387.503 36.034L376.875 36.1351L376.576 4.64996L387.203 4.54892C396.725 4.4584 402.702 10.2818 402.796 20.1508L402.796 20.1385ZM398.902 20.1755C398.829 12.5651 394.84 7.82767 387.235 7.89997L380.33 7.96562L380.566 32.7364L387.471 32.6707C395.088 32.5983 398.974 27.786 398.902 20.1755Z" fill="#FF4D00"/>
<path d="M411.505 4.31787L415.227 4.28248L415.527 35.7676L411.804 35.803L411.505 4.31787Z" fill="#FF4D00"/>
<path d="M424.223 19.9348C424.125 9.72209 430.221 3.42793 438.625 3.34803C444.817 3.28916 450.474 6.46396 452.144 14.0592L448.385 14.0949C446.92 8.6215 442.908 6.72003 438.67 6.76033C432.293 6.82096 428.051 11.6858 428.13 19.9099C428.208 28.1341 432.541 32.9174 438.918 32.8568C443.39 32.8142 447.971 30.07 448.7 24.011L452.423 23.9756C451.702 32.2073 445.413 36.2077 438.95 36.2692C430.547 36.3491 424.332 30.172 424.235 19.9592L424.223 19.9348Z" fill="#FF4D00"/>
<path d="M481.074 7.00781L470.361 7.10966L470.628 35.2437L466.783 35.2803L466.515 7.14623L455.802 7.24808L455.77 3.88477L481.042 3.64449L481.074 7.00781V7.00781Z" fill="#FF4D00"/>
<path d="M488.795 3.58307L492.517 3.54768L492.817 35.0328L489.094 35.0682L488.795 3.58307Z" fill="#FF4D00"/>
<path d="M501.513 19.2C501.42 9.42914 507.29 2.69518 516.456 2.60804C525.621 2.5209 531.606 9.14214 531.699 18.913C531.792 28.6838 525.921 35.4177 516.768 35.5048C507.615 35.5918 501.606 28.9708 501.513 19.2V19.2ZM527.804 18.95C527.728 10.9468 523.257 5.94382 516.488 6.00818C509.718 6.07255 505.343 11.1596 505.42 19.1628C505.496 27.166 509.966 32.169 516.736 32.1046C523.505 32.0402 527.88 26.9532 527.804 18.95V18.95Z" fill="#FF4D00"/>
<path d="M565.458 2.85417L565.758 34.3393L561.249 34.3821L550.651 18.254C548.444 14.8746 545.751 10.6895 544.002 7.66167C544.196 13.8469 544.251 19.6898 544.292 23.9369L544.392 34.5424L540.719 34.5773L540.42 3.09223L544.929 3.04936L555.526 19.1775C557.733 22.557 560.427 26.742 562.175 29.7698C561.982 23.5846 561.926 17.7417 561.886 13.4946L561.785 2.87682L565.458 2.8419L565.458 2.85417Z" fill="#FF4D00"/>
<path d="M594.628 24.9069L580.291 25.0432L576.753 34.2347L572.859 34.2717L585.128 2.66713L589.293 2.62753L602.345 33.9914L598.401 34.0289L594.64 24.9067L594.628 24.9069ZM593.269 21.5561L593.094 21.165C591.685 17.7779 589.156 11.5167 587.205 6.6739C585.433 11.5521 583.061 17.8599 581.717 21.3223L581.586 21.6795L593.269 21.5684L593.269 21.5561Z" fill="#FF4D00"/>
<path d="M634.018 33.6903L630.172 33.7269C629.45 32.7148 629.178 31.2197 629.112 29.5385L628.945 26.1765C628.732 21.796 627.034 20.3145 623.262 20.3503L612.992 20.448L613.119 33.889L609.397 33.9244L609.097 2.43927L622.415 2.31265C628.607 2.25378 633.107 5.16951 633.161 10.7914C633.2 14.9526 631.012 17.4409 628.061 18.451C630.809 19.3088 632.204 21.3333 632.457 24.5963L632.812 29.6752C632.911 31.086 633.233 32.5929 634.005 33.6904L634.018 33.6903ZM629.33 11.0488C629.294 7.29269 626.575 5.63673 622.459 5.67586L612.852 5.7672L612.96 17.0847L623.009 16.9891C626.683 16.9542 629.368 15.0259 629.33 11.0488Z" fill="#FF4D00"/>
<path d="M664.838 1.90931L652.977 20.8657L653.097 33.5089L649.375 33.5443L649.254 20.8889L637.035 2.16138L641.286 2.12096L646 9.46629C647.746 12.1504 649.455 14.8349 651.127 17.5565C652.735 14.8037 654.392 12.0381 656.099 9.32117L660.636 1.93699L664.838 1.89704L664.838 1.90931Z" fill="#FF4D00"/>
<path d="M195.057 41.6448C191.174 41.6817 187.304 41.7185 183.422 41.7554C182.316 41.7659 182.304 41.7661 182.294 40.6736C182.259 37.0525 182.225 33.4314 182.19 29.8103C182.182 28.9388 182.285 28.0908 182.535 27.2659C183.012 25.7269 183.997 24.6863 185.528 24.1807C185.7 24.13 185.871 24.067 186.03 24.0164C186.679 23.8015 186.692 23.8014 186.685 23.1017C186.677 22.2916 186.67 21.4814 186.662 20.6713C186.658 20.2417 186.52 19.9974 186.078 19.9526C185.955 19.9414 185.831 19.8935 185.708 19.8701C183.64 19.3988 182.56 18.2674 182.208 16.1715C182.104 15.5464 182.037 14.921 182.03 14.2827C181.999 11.0176 181.968 7.75245 181.937 4.48732C181.936 4.36458 181.935 4.22955 181.934 4.1068C181.965 3.54181 182.05 3.45507 182.615 3.42514C182.787 3.42351 182.972 3.42175 183.144 3.42012C190.65 3.34875 198.145 3.2775 205.651 3.20612C206.495 3.1981 206.921 3.60735 206.928 4.43386C206.935 5.1458 206.942 5.84547 206.949 6.55741C206.955 7.25708 206.87 7.31928 206.157 7.3506C205.924 7.35282 205.703 7.35492 205.469 7.35714C199.585 7.41309 193.712 7.46893 187.827 7.52488C187.09 7.53189 186.725 7.89136 186.731 8.60331C186.764 12.0157 186.796 15.4404 186.829 18.8528C186.831 19.0247 186.832 19.2088 186.834 19.3807C186.838 19.7735 187.036 19.9189 187.404 19.9154C187.736 19.9122 188.068 19.9091 188.387 19.906C193.867 19.8539 199.334 19.802 204.813 19.7499C205.665 19.7418 206.099 20.1755 206.116 21.051C206.122 21.6893 206.128 22.3153 206.134 22.9536C206.115 23.6044 206.018 23.7036 205.392 23.7341C205.134 23.7365 204.888 23.7389 204.63 23.7413C199.151 23.7934 193.683 23.8454 188.204 23.8975C186.717 23.9116 186.889 23.8854 186.902 25.2357C186.937 28.9059 186.972 32.5761 187.007 36.2463C187.008 36.369 187.009 36.504 187.01 36.6268C187.019 37.5351 187.044 37.5594 187.953 37.5508C194.133 37.492 200.325 37.4332 206.504 37.3744C207.381 37.3661 207.823 37.7915 207.831 38.6508C207.838 39.3382 207.844 40.0133 207.851 40.7007C207.845 41.4005 207.76 41.4872 207.047 41.494C204.897 41.5144 202.735 41.535 200.585 41.5554C198.73 41.5731 196.887 41.5906 195.032 41.6082L195.057 41.6448Z" fill="#FF4D00"/>
<path d="M296.071 40.6844C292.324 40.72 288.564 40.7558 284.817 40.7914C284.645 40.793 284.461 40.7948 284.289 40.7964C283.392 40.8049 283.342 40.744 283.334 39.8602C283.298 36.1164 283.262 32.3726 283.227 28.6164C283.221 28.0027 283.301 27.4004 283.431 26.8099C283.843 24.9892 284.901 23.7392 286.726 23.1695C287.73 22.853 287.757 23.0737 287.732 21.7604C287.726 21.073 287.707 20.398 287.713 19.7105C287.709 19.2809 287.547 19.0615 287.116 19.0042C286.636 18.9351 286.181 18.8044 285.724 18.6123C284.602 18.1442 283.844 17.3412 283.489 16.1784C283.236 15.3705 283.093 14.5494 283.085 13.7147C283.052 10.2778 283.02 6.82851 282.987 3.39154C282.979 2.55685 283.052 2.49477 283.9 2.48671C291.603 2.41347 299.319 2.34012 307.022 2.26688C307.169 2.26548 307.329 2.26396 307.476 2.27483C307.772 2.29658 307.957 2.42985 307.96 2.74899C307.97 3.81691 307.98 4.87255 307.99 5.94047C307.994 6.25961 307.786 6.38435 307.491 6.39943C307.233 6.40188 306.987 6.41649 306.729 6.41894C300.894 6.47443 295.07 6.5298 289.234 6.58528C289.026 6.58727 288.829 6.58913 288.62 6.59112C287.797 6.59895 287.773 6.63601 287.768 7.45854C287.802 11.006 287.836 14.5412 287.869 18.0886C287.878 18.9724 287.878 18.9847 288.775 18.9761C294.426 18.9224 300.078 18.8687 305.742 18.8148C306 18.8124 306.245 18.81 306.503 18.8076C306.884 18.804 307.07 18.9863 307.074 19.3546C307.083 20.312 307.092 21.2817 307.101 22.2392C307.104 22.5829 306.934 22.7564 306.602 22.7718C306.344 22.7865 306.099 22.7889 305.841 22.7913C300.546 22.8416 295.238 22.8921 289.943 22.9425C289.464 22.947 288.985 22.9638 288.493 22.9808C288.125 22.9843 287.918 23.1459 287.934 23.5385C287.935 23.6858 287.936 23.8454 287.938 23.9927C287.975 27.8716 288.011 31.7382 288.048 35.617C288.058 36.6236 288.058 36.6358 289.078 36.6261C295.233 36.5676 301.4 36.509 307.556 36.4505C308.424 36.4422 308.862 36.8718 308.87 37.7392C308.877 38.4021 308.883 39.0526 308.889 39.7155C308.884 40.5012 308.823 40.5632 308.013 40.5831C305.58 40.6063 303.148 40.6294 300.715 40.6525C299.167 40.6672 297.619 40.682 296.071 40.6967L296.071 40.6844Z" fill="#FF4D00"/>
<path d="M261.572 6.07493C259.372 6.02219 257.163 6.31326 255.006 6.93529C253.524 7.36677 253.342 7.58947 253.258 9.14932C253.216 9.86173 253.222 10.5614 253.327 11.2724C253.617 13.2829 254.761 14.6838 256.454 15.7111C257.689 16.4605 259.022 17.0248 260.378 17.5398C263.128 18.5817 265.878 19.6112 268.616 20.7023C270.367 21.3977 271.998 22.3029 273.447 23.529C275.751 25.4835 276.684 27.9299 276.147 30.9057C275.784 32.8488 274.68 34.3201 273.056 35.4159C272.763 35.6151 272.458 35.7898 272.14 35.9647C271.883 36.1022 271.725 36.3001 271.605 36.5713C270.499 39.123 268.56 40.6882 265.863 41.3154C263.644 41.8275 261.445 41.8116 259.275 41.0588C257.303 40.3778 255.804 39.1031 254.791 37.2836C254.529 36.8074 254.219 36.5034 253.701 36.3119C252.504 35.8568 251.429 35.2041 250.499 34.3168C249.011 32.8947 248.306 31.1213 248.103 29.1223C248.036 28.4846 248.157 28.3484 248.808 28.3422C250.147 28.3172 251.499 28.3043 252.838 28.3039C253.502 28.2976 253.552 28.3953 253.509 29.0832C253.382 31.2449 253.55 33.3794 254.135 35.473C254.351 36.2198 254.748 36.5966 255.511 36.7857C257.716 37.3172 259.942 37.5906 262.203 37.6305C264.538 37.6697 266.859 37.5372 269.139 36.9508C269.801 36.7726 270.45 36.57 271.087 36.3062C271.466 36.143 271.709 35.8829 271.791 35.477C272.236 33.1281 272.165 30.8331 270.928 28.7089C270.379 27.7443 269.573 27.0031 268.67 26.3733C267.248 25.3802 265.644 24.7448 264.029 24.1341C261.304 23.1043 258.542 22.173 255.853 21.0446C254.447 20.4565 253.113 19.7326 251.876 18.8359C250.577 17.8908 249.558 16.722 249.15 15.1177C248.473 12.4111 249.54 9.6757 252.008 8.16685C252.973 7.5807 253.654 6.89904 254.21 5.8994C255.08 4.3198 256.508 3.28732 258.222 2.70632C260.439 1.94868 262.687 1.87821 264.953 2.48273C267.207 3.0751 268.818 4.43471 269.808 6.52449C270.021 6.97667 270.307 7.24403 270.751 7.43623C272.071 7.98837 273.257 8.75048 274.25 9.79677C275.28 10.855 275.845 12.1263 276.056 13.5729C276.135 14.1614 276.026 14.3097 275.424 14.3277C274.109 14.3525 272.782 14.3651 271.468 14.3654C270.669 14.3729 270.582 14.2633 270.648 13.477C270.816 11.7199 270.591 10.0034 270.23 8.27594C270.063 7.50414 269.666 7.12736 268.915 6.93808C266.514 6.33484 264.09 6.00188 261.572 6.09948L261.572 6.07493Z" fill="#FF4D00"/>
<path d="M145.586 3.78947C146.2 3.78363 146.802 3.77791 147.417 3.77207C148.105 3.76553 148.179 3.8262 148.357 4.51196C148.893 6.61834 149.43 8.73699 149.966 10.8434C151.855 18.2769 153.732 25.7106 155.621 33.1442C155.927 34.3443 156.246 35.5444 156.515 36.7571C156.644 37.3574 156.917 37.6494 157.557 37.7538C159.083 38.0094 160.57 38.0075 162.09 37.6985C162.63 37.5829 162.861 37.3597 162.979 36.843C163.509 34.4687 164.077 32.1063 164.632 29.744C165.552 25.7456 166.485 21.7593 167.405 17.7608C168.42 13.3686 169.423 8.97656 170.438 4.58438C170.473 4.41218 170.52 4.23986 170.556 4.06766C170.638 3.72315 170.858 3.56147 171.214 3.55808C172.529 3.54559 173.856 3.5207 175.17 3.52047C175.736 3.5151 175.823 3.66158 175.693 4.23978C175.28 5.96236 174.854 7.68505 174.428 9.40774C172.629 16.6554 170.83 23.9031 169.044 31.1506C168.299 34.2022 166.538 36.3549 163.562 37.4635C163.171 37.6145 162.927 37.8378 162.845 38.256C162.716 38.871 162.55 39.4864 162.408 40.1015C162.301 40.5199 162.17 40.9263 161.965 41.3088C161.494 42.2094 160.749 42.6216 159.741 42.6067C158.733 42.5917 158.077 42.0701 157.639 41.2272C157.326 40.6163 157.172 39.9426 156.994 39.2814C156.968 39.1835 156.931 39.0856 156.917 38.9875C156.823 38.0923 156.352 37.618 155.476 37.2826C152.985 36.3487 151.407 34.4855 150.621 31.9764C150.038 30.116 149.578 28.2176 149.069 26.3442C147.133 19.1811 145.21 12.0302 143.274 4.86719C142.994 3.81412 142.994 3.81412 144.075 3.79157C144.578 3.78678 145.094 3.78187 145.598 3.77708L145.586 3.78947Z" fill="#FF4D00"/>
<path d="M245.391 17.8418C245.481 27.269 237.886 34.8664 228.033 34.96C218.18 35.0537 210.368 27.6028 210.278 18.1757C210.189 8.74857 217.783 1.0898 227.71 0.995416C237.637 0.901035 245.301 8.35336 245.391 17.8418ZM241.656 17.8774C241.583 10.2178 235.544 4.35821 227.73 4.4325C219.916 4.5068 213.928 10.4685 214.001 18.1403C214.074 25.8121 220.112 31.5121 227.987 31.4373C235.862 31.3624 241.729 25.4755 241.656 17.8774ZM235.031 24.0538C235.116 25.2438 235.331 25.8801 235.903 26.648L232.242 26.6828C231.745 26.0492 231.589 25.2159 231.517 24.0872L231.365 22.2595C231.211 20.3582 230.702 19.737 228.945 19.7537L224.583 19.7952L224.65 26.755L221.136 26.7884L220.965 8.85481L228.779 8.78051C232.723 8.74302 235.197 10.5486 235.229 13.8506C235.245 15.5322 234.56 17.1592 232.664 18.0242C234.144 18.6485 234.72 19.8338 234.81 21.5148L235.043 24.0414L235.031 24.0538ZM228.904 16.7342C230.587 16.7182 231.574 15.8004 231.559 14.3151C231.544 12.6948 230.554 11.9309 228.649 11.949L224.497 11.9884L224.542 16.7756L228.904 16.7342V16.7342Z" fill="#FF4D00"/>
<path d="M43.9077 4.67028L44.2711 42.8943L34.0616 42.9914L33.9586 32.1526C33.8978 25.7574 33.8959 20.3928 34.108 14.2651C33.4342 17.0581 32.8189 19.5437 31.928 22.7685L26.5918 43.0624L17.8812 43.1452L12.1478 22.9566C11.2081 19.7492 10.5334 17.2759 9.80661 14.4961C10.1351 20.6187 10.2353 25.9824 10.2961 32.3776L10.3991 43.2163L0.201904 43.3133L-0.161516 5.08928L16.2892 4.93287L20.0759 19.3948C20.7397 22.0156 21.4671 24.8567 22.0829 27.5884C22.6466 24.8455 23.3198 21.991 23.9337 19.3581L27.4447 4.82681L43.8954 4.6704L43.9077 4.67028Z" fill="#FF4D00"/>
<path d="M49.8295 4.614L60.5795 4.51179L60.943 42.7358L50.1929 42.838L49.8295 4.614Z" fill="#FF4D00"/>
<path d="M101.147 4.1261L101.511 42.3501L90.171 42.4579L81.9209 28.9468C79.8983 25.5779 78.2133 22.8073 76.5604 19.5453C76.8357 25.2387 76.9333 30.3323 76.9904 36.347L77.0497 42.5827L66.8402 42.6797L66.4768 4.45573L77.8166 4.34792L86.0667 17.859C87.652 20.471 89.7252 23.9991 91.4277 27.3097C91.1524 21.6162 91.0542 16.4612 90.997 10.4465L90.9379 4.22316L101.147 4.1261Z" fill="#FF4D00"/>
<path d="M138.329 13.3233L127.038 13.4306L127.311 42.1048L116.561 42.207L116.288 13.5328L104.998 13.6402L104.907 4.07804L138.226 3.76125L138.317 13.3234L138.329 13.3233Z" fill="#FF4D00"/>
<path d="M353.842 15.9637L353.815 13.1036L350.952 13.1309L350.98 15.9909L353.842 15.9637Z" fill="#FF4D00"/>
<path d="M350.953 13.1431L350.925 10.2831L348.063 10.3103L348.09 13.1703L350.953 13.1431Z" fill="#FF4D00"/>
<path d="M356.744 18.7964L356.717 15.9363L353.855 15.9636L353.882 18.8236L356.744 18.7964Z" fill="#FF4D00"/>
<path d="M359.622 21.6293L359.595 18.7693L356.732 18.7965L356.759 21.6566L359.622 21.6293Z" fill="#FF4D00"/>
<path d="M356.799 24.5042L356.771 21.6442L353.909 21.6714L353.936 24.5314L356.799 24.5042Z" fill="#FF4D00"/>
<path d="M353.951 27.4039L353.924 24.5438L351.061 24.571L351.088 27.4311L353.951 27.4039Z" fill="#FF4D00"/>
<path d="M351.116 30.2911L351.088 27.4311L348.226 27.4583L348.253 30.3184L351.116 30.2911Z" fill="#FF4D00"/>
<path d="M340.672 16.0889L340.645 13.2288L337.782 13.256L337.809 16.1161L340.672 16.0889Z" fill="#FF4D00"/>
<path d="M337.782 13.2683L337.755 10.4083L334.892 10.4355L334.92 13.2955L337.782 13.2683Z" fill="#FF4D00"/>
<path d="M343.549 18.9218L343.522 16.0618L340.66 16.089L340.687 18.949L343.549 18.9218Z" fill="#FF4D00"/>
<path d="M346.439 21.7546L346.412 18.8946L343.549 18.9218L343.577 21.7819L346.439 21.7546Z" fill="#FF4D00"/>
<path d="M343.604 24.6296L343.577 21.7696L340.714 21.7968L340.741 24.6569L343.604 24.6296Z" fill="#FF4D00"/>
<path d="M340.781 27.5291L340.753 24.669L337.891 24.6962L337.918 27.5563L340.781 27.5291Z" fill="#FF4D00"/>
<path d="M337.945 30.4163L337.918 27.5563L335.055 27.5835L335.083 30.4435L337.945 30.4163Z" fill="#FF4D00"/>
<path d="M327.489 16.2142L327.462 13.3542L324.599 13.3814L324.627 16.2415L327.489 16.2142Z" fill="#FF4D00"/>
<path d="M324.612 13.3936L324.585 10.5335L321.722 10.5607L321.749 13.4208L324.612 13.3936Z" fill="#FF4D00"/>
<path d="M330.379 19.0471L330.352 16.187L327.489 16.2142L327.516 19.0743L330.379 19.0471Z" fill="#FF4D00"/>
<path d="M333.269 21.8799L333.242 19.0198L330.379 19.0471L330.406 21.9071L333.269 21.8799Z" fill="#FF4D00"/>
<path d="M330.433 24.7549L330.406 21.8948L327.543 21.9221L327.571 24.7821L330.433 24.7549Z" fill="#FF4D00"/>
<path d="M327.598 27.6544L327.571 24.7944L324.708 24.8216L324.735 27.6816L327.598 27.6544Z" fill="#FF4D00"/>
<path d="M324.775 30.5416L324.748 27.6815L321.885 27.7087L321.912 30.5688L324.775 30.5416Z" fill="#FF4D00"/>
</g>
<defs>
<clipPath id="clip0_258_2245">
<rect width="41" height="665" fill="white" transform="translate(0 41) rotate(-90)"/>
</clipPath>
</defs>
</svg>
