<svg width="356" height="57" viewBox="0 0 356 57" fill="none" xmlns="http://www.w3.org/2000/svg">
<path d="M174.281 41.3635L165.975 3.79053H171.762L181.262 49.798C179.553 49.2781 177.998 48.2166 176.768 46.7293C175.537 45.242 174.677 43.3859 174.281 41.3635ZM181.956 53.125L181.262 49.798C183.618 50.4828 186.081 50.4828 188.437 49.798L187.743 53.125C187.364 55.1223 186.549 56.452 184.83 56.452C183.112 56.452 182.398 55.1337 181.956 53.1364V53.125ZM197.874 3.80193H203.661L195.408 41.3749C195.013 43.3973 194.153 45.2534 192.922 46.7407C191.691 48.228 190.136 49.2895 188.427 49.8094L197.874 3.80193Z" fill="#FF4D00" stroke="#FF4D00" stroke-width="0.443852" stroke-miterlimit="10"/>
<path d="M208.447 18.5367V3.802H237.088V9.12637H213.733V26.138C209.767 25.6187 208.447 23.3303 208.447 18.5367ZM208.447 39.2463C208.447 35.2516 209.767 32.2956 213.733 31.5537V50.266H237.705V55.596H208.447V39.2463ZM213.733 26.1552C214.379 26.219 215.027 26.2438 215.675 26.2294H235.87V31.4053H215.675C215.026 31.4133 214.378 31.4629 213.733 31.5537V26.1552Z" fill="#FF4D00" stroke="#FF4D00" stroke-width="0.443852" stroke-miterlimit="10"/>
<path d="M286.226 38.4189H292.328C292.224 39.4986 292.182 40.5853 292.202 41.6717C292.126 44.3556 292.535 47.0278 293.401 49.5127C289.012 47.6409 286.308 44.2169 286.226 38.4189ZM313.848 45.2213C313.848 38.4931 310.935 35.5199 305.352 33.0203L296.857 29.174C291.386 26.6574 287.42 23.6271 287.42 18.3712C287.42 14.3765 289.308 11.5688 292.643 9.94243C292.317 11.0429 292.153 12.2009 292.158 13.3665C292.158 19.1359 294.804 21.3558 300.653 24.0152L309.149 27.9357C314.872 30.6007 318.586 34.3728 318.586 39.9939C318.586 44.0628 316.823 47.2414 313.299 49.1646C313.689 47.9011 313.881 46.5652 313.867 45.2213H313.848ZM302.27 2.91748C307.051 2.91748 310.197 5.20016 311.644 9.86824C308.568 8.62619 305.332 8.02557 302.08 8.09346C298.304 8.09346 295.095 8.66413 292.643 9.94243C293.857 5.94774 297.129 2.91748 302.289 2.91748H302.27ZM293.401 49.5127C296.313 50.694 299.818 51.2247 303.716 51.2247C307.615 51.2247 310.891 50.4828 313.28 49.1532C312.022 53.3704 308.687 56.4749 303.338 56.4749C298.575 56.4635 295.177 54.021 293.42 49.5127H293.401ZM312.527 16.6706C312.566 14.3605 312.267 12.0596 311.644 9.86824C315.673 11.643 318.377 14.8217 318.503 19.4098H312.44C312.484 18.4454 312.547 17.5609 312.547 16.6706H312.527Z" fill="#FF4D00" stroke="#FF4D00" stroke-width="0.443852" stroke-miterlimit="10"/>
<path d="M325.77 18.5367V3.802H354.411V9.12637H331.057V26.138C327.09 25.6187 325.77 23.3303 325.77 18.5367ZM325.77 39.2463C325.77 35.2516 327.09 32.2956 331.057 31.5537V50.266H355.028V55.596H325.77V39.2463ZM331.057 26.1552C331.702 26.219 332.35 26.2438 332.998 26.2294H353.217V31.4053H333.023C332.374 31.4133 331.725 31.4629 331.081 31.5537L331.057 26.1552Z" fill="#FF4D00" stroke="#FF4D00" stroke-width="0.443852" stroke-miterlimit="10"/>
<path d="M282.1 24.2434C282.1 37.112 273.192 47.3898 261.755 47.3898C250.235 47.3898 241.332 37.1177 241.332 24.2434C241.332 11.2778 250.235 1 261.755 1C273.192 0.994296 282.1 11.2721 282.1 24.2434ZM277.769 24.2434C277.769 13.7716 270.823 5.70802 261.75 5.70802C252.599 5.70802 245.652 13.7716 245.652 24.2434C245.652 34.6182 252.599 42.5848 261.75 42.5848C270.823 42.579 277.769 34.6125 277.769 24.2434ZM270.002 32.598C269.985 33.8763 270.326 35.1257 270.973 36.1533H266.726C266.153 35.2859 265.988 34.1331 265.905 32.598L265.745 30.1042C265.58 27.5076 265.007 26.6459 262.963 26.6459H257.915V36.1533H253.827V11.6544H262.924C267.497 11.6544 270.357 14.154 270.357 18.668C270.357 20.9506 269.541 23.182 267.332 24.3347C269.051 25.1964 269.701 26.8285 269.784 29.1341L270.002 32.598ZM262.978 22.5314C264.92 22.5314 266.085 21.2816 266.085 19.2672C266.085 17.0587 264.939 16.0029 262.735 16.0029H257.915V22.5314H262.978Z" fill="#FF4D00" stroke="#FF4D00" stroke-width="0.443852" stroke-miterlimit="10"/>
<path d="M52.24 3.62524V55.8473H40.3999V41.0099C40.3999 32.2786 40.463 24.9455 40.7737 16.5852C39.963 20.3972 39.2154 23.7699 38.1571 28.1698L31.7298 55.8244H21.6228L15.1955 28.1698C14.1324 23.7699 13.3848 20.3972 12.5741 16.5852C12.8848 24.9455 12.9479 32.2786 12.9479 41.0099V55.8473H1.09326V3.62524H20.2005L24.4433 23.4275C25.1909 27.0227 26.0016 30.909 26.6909 34.6526C27.3754 30.909 28.1861 27.0227 28.9337 23.4275L33.1765 3.62524H52.24Z" fill="#FF4D00" stroke="#FF4D00" stroke-width="0.443852" stroke-miterlimit="10"/>
<path d="M58.6333 3.62524H71.1141V55.8473H58.6333V3.62524Z" fill="#FF4D00" stroke="#FF4D00" stroke-width="0.443852" stroke-miterlimit="10"/>
<path d="M117.732 3.62524V55.8473H104.566L95.1437 37.2891C92.8378 32.6666 90.9009 28.8546 89.0319 24.3805C89.2795 32.153 89.3426 39.1209 89.3426 47.3386V55.8473H77.4832V3.62524H90.6485L100.071 22.1835C101.877 25.773 104.251 30.618 106.183 35.1605C105.935 27.388 105.872 20.3231 105.872 12.1339V3.62524H117.732Z" fill="#FF4D00" stroke="#FF4D00" stroke-width="0.443852" stroke-miterlimit="10"/>
<path d="M160.781 16.6822H147.674V55.8473H135.203V16.6822H122.095V3.62524H160.776L160.781 16.6822Z" fill="#FF4D00" stroke="#FF4D00" stroke-width="0.443852" stroke-miterlimit="10"/>
</svg>
